<mxfile host="app.diagrams.net" modified="2023-04-23T04:21:04.663Z" agent="Mozilla/5.0 (Windows NT 10.0; Win64; x64; rv:109.0) Gecko/20100101 Firefox/112.0" version="21.2.1" etag="lvgRdMaU3K3bI-8X6kuj" type="github">
  <diagram name="Page-1" id="RE9szZ-ULHyN1HARuKcM">
    <mxGraphModel>
      <root>
        <mxCell id="0" />
        <mxCell id="1" parent="0" />
      </root>
    </mxGraphModel>
  </diagram>
</mxfile>
